<?xml version="1.0" standalone="no"?>
<!DOCTYPE svg PUBLIC "-//W3C//DTD SVG 20010904//EN"
 "http://www.w3.org/TR/2001/REC-SVG-20010904/DTD/svg10.dtd">
<svg version="1.0" xmlns="http://www.w3.org/2000/svg"
 width="1040.000000pt" height="1040.000000pt" viewBox="0 0 1040.000000 1040.000000"
 preserveAspectRatio="xMidYMid meet">
<metadata>
Created by potrace 1.11, written by Peter Selinger 2001-2013
</metadata>
<g transform="translate(0.000000,1040.000000) scale(0.100000,-0.100000)"
fill="#000000" stroke="none">
<path d="M5168 10244 c-4 -3 -44 -8 -90 -9 -96 -4 -192 -12 -228 -21 -14 -3
-38 -7 -55 -9 -16 -1 -48 -7 -70 -13 -22 -6 -51 -13 -65 -15 -26 -5 -116 -32
-160 -48 -14 -5 -34 -11 -45 -14 -57 -12 -368 -158 -395 -185 -6 -6 -46 -29
-82 -48 -16 -7 -28 -18 -28 -23 0 -5 -7 -9 -15 -9 -8 0 -15 -4 -15 -10 0 -5
-5 -10 -12 -10 -6 0 -18 -7 -27 -15 -35 -32 -89 -75 -95 -75 -4 0 -22 -15 -40
-32 -18 -18 -69 -67 -112 -109 -43 -42 -95 -96 -114 -119 -19 -24 -40 -48 -46
-54 -26 -27 -124 -166 -124 -175 0 -6 -4 -11 -10 -11 -5 0 -10 -4 -10 -9 0 -6
-13 -29 -29 -53 -25 -38 -105 -185 -107 -198 0 -3 -12 -31 -27 -64 -32 -69
-77 -191 -83 -225 -3 -13 -9 -32 -15 -43 -5 -10 -7 -18 -5 -18 3 0 1 -11 -4
-25 -5 -14 -12 -36 -14 -48 -3 -12 -8 -33 -11 -47 -6 -29 -25 -146 -29 -181
-1 -14 -5 -29 -8 -35 -4 -5 -3 -16 2 -24 5 -8 5 -21 1 -29 -5 -9 -9 -49 -10
-90 -1 -41 -5 -79 -8 -85 -4 -5 1 -7 10 -3 10 3 17 3 17 -1 0 -9 82 -8 98 2 6
4 12 4 12 -1 0 -9 151 -8 175 1 8 3 15 2 15 -3 0 -9 31 -8 48 3 6 4 12 4 12
-1 0 -10 122 -9 138 1 7 4 12 4 12 -1 0 -12 74 -10 82 2 5 7 8 7 8 0 0 -10
140 -11 166 -1 8 3 14 2 14 -2 0 -9 102 -8 118 2 6 4 12 4 12 -1 0 -10 131
-10 148 1 6 4 12 4 12 -1 0 -9 151 -8 175 1 8 3 15 2 15 -3 0 -9 31 -8 48 3 6
4 12 4 12 -1 0 -10 122 -9 138 1 7 4 12 4 12 -1 0 -12 74 -10 82 2 5 7 8 7 8
0 0 -10 140 -11 166 -1 8 3 14 2 14 -2 0 -9 102 -8 118 2 6 4 12 4 12 -1 0
-10 131 -10 148 1 6 4 12 4 12 -1 0 -12 74 -10 82 2 5 7 8 7 8 0 0 -11 120
-12 138 -1 7 4 12 4 12 -1 0 -12 74 -10 82 2 5 6 8 6 8 -2 0 -11 34 -10 68 2
6 2 12 1 12 -3 0 -9 123 -8 138 2 7 4 12 4 12 -1 0 -12 74 -10 82 2 5 6 8 6 8
-2 0 -11 34 -10 68 2 6 2 12 1 12 -3 0 -9 123 -8 138 2 7 4 12 4 12 -1 0 -12
74 -10 82 2 5 6 8 6 8 -2 0 -11 34 -10 68 2 6 2 12 1 12 -3 0 -9 123 -8 138 2
7 4 12 4 12 -1 0 -12 74 -10 82 2 5 6 8 6 8 -2 0 -11 34 -10 68 2 6 2 12 1 12
-3 0 -9 123 -8 138 2 7 4 12 4 12 -1 0 -12 74 -10 82 2 5 6 8 6 8 -2 0 -11 34
-10 68 2 6 2 12 1 12 -3 0 -9 123 -8 138 2 7 4 12 4 12 -1 0 -12 74 -10 82 2
5 6 8 6 8 -2 0 -11 34 -10 68 2 6 2 12 1 12 -3 0 -9 123 -8 138 2 7 4 12 4 12
-1 0 -12 74 -10 82 2 5 6 8 6 8 -1 0 -8 14 -10 38 -7 60 7 59 6 56 85 -1 40
-3 73 -4 73 0 0 -3 25 -5 55 -2 30 -6 69 -9 85 -4 17 -9 50 -12 75 -3 25 -7
53 -10 62 -3 9 -6 25 -8 35 -29 144 -101 345 -183 505 -26 51 -46 96 -45 101
1 4 -2 7 -6 7 -5 0 -19 20 -32 45 -12 24 -31 53 -41 64 -11 11 -19 23 -19 26
0 7 -91 130 -136 185 -59 71 -222 227 -304 292 -47 37 -92 73 -100 80 -9 7
-28 19 -43 27 -15 8 -36 23 -47 33 -11 10 -20 16 -20 12 0 -4 -8 0 -17 8 -18
15 -114 72 -123 73 -3 0 -43 19 -90 42 -105 51 -186 84 -211 86 -10 1 -19 4
-19 8 0 4 -24 13 -52 20 -29 7 -55 14 -58 14 -3 1 -12 4 -20 8 -25 9 -73 20
-100 23 -14 1 -25 3 -25 4 0 1 -8 3 -17 5 -9 2 -40 8 -68 14 -28 6 -56 9 -61
5 -5 -3 -9 -2 -9 3 0 4 -17 9 -38 10 -126 6 -204 12 -208 16 -3 3 -18 1 -34
-3 -18 -5 -30 -4 -32 1 -2 6 -6 7 -10 3z"/>
<path d="M3206 7883 c-1 -1 -30 -5 -64 -7 -90 -8 -223 -55 -306 -109 -77 -49
-216 -194 -216 -225 0 -5 -7 -15 -15 -22 -8 -7 -15 -19 -15 -28 0 -8 -7 -23
-15 -32 -8 -9 -17 -27 -19 -41 -2 -13 -5 -24 -6 -24 -2 0 -7 -20 -24 -93 -11
-52 -14 -186 -12 -725 l1 -661 123 -1 c77 0 122 3 122 10 0 7 3 7 8 0 4 -7 90
-11 237 -11 147 0 233 4 237 11 5 6 8 6 8 0 0 -14 430 -14 430 0 0 6 3 6 8 0
4 -6 21 -11 37 -10 24 0 30 -4 31 -21 1 -12 4 -26 8 -33 4 -6 3 -11 -3 -11 -7
0 -7 -9 -3 -22 5 -13 8 -29 8 -37 -1 -17 -46 -49 -46 -32 0 7 -5 9 -11 5 -17
-10 -61 -11 -81 -2 -10 5 -20 4 -23 -2 -5 -8 -11 -8 -20 0 -9 8 -15 8 -20 0
-4 -6 -12 -7 -23 -1 -10 6 -23 6 -34 0 -12 -7 -18 -6 -18 1 0 7 -6 8 -19 0
-13 -7 -22 -7 -26 0 -4 7 -12 7 -25 0 -10 -6 -21 -6 -24 -1 -6 9 -48 7 -65 -4
-6 -3 -11 -1 -11 5 0 8 -6 8 -20 0 -14 -8 -20 -8 -20 0 0 8 -6 8 -20 0 -14 -8
-20 -8 -20 0 0 8 -6 8 -20 0 -14 -8 -20 -8 -20 0 0 8 -6 8 -20 0 -14 -8 -20
-8 -20 0 0 8 -6 8 -20 0 -14 -8 -20 -8 -20 0 0 8 -6 8 -20 0 -14 -8 -20 -8
-20 0 0 6 -5 8 -11 4 -17 -10 -61 -11 -81 -2 -10 5 -20 4 -23 -2 -5 -8 -11 -8
-20 0 -9 8 -15 8 -20 0 -4 -6 -12 -7 -23 -1 -11 6 -24 6 -35 0 -11 -7 -17 -6
-17 1 0 7 -6 8 -19 0 -13 -7 -22 -7 -26 0 -4 7 -12 7 -25 0 -10 -6 -21 -6 -24
-1 -6 9 -48 7 -65 -4 -6 -3 -11 -1 -11 5 0 8 -6 8 -20 0 -14 -8 -20 -8 -20 0
0 8 -6 8 -20 0 -14 -8 -20 -8 -20 0 0 7 -6 8 -18 1 -13 -7 -23 -6 -30 1 -9 9
-12 9 -12 0 0 -7 -6 -11 -12 -10 -10 2 -13 -123 -13 -602 0 -333 4 -621 8
-640 43 -202 144 -357 305 -468 44 -30 152 -84 152 -76 0 4 6 2 13 -4 7 -6 26
-13 42 -16 17 -2 30 -5 30 -6 0 -5 48 -11 109 -15 37 -2 70 -6 73 -9 3 -2 15
-1 27 4 13 4 29 4 39 -1 9 -6 17 -6 17 -2 0 4 14 8 30 8 17 0 30 -2 30 -5 0
-7 55 -4 68 4 6 3 13 2 17 -4 4 -7 13 -7 26 1 15 7 24 7 34 -1 9 -8 15 -8 20
0 4 6 12 7 23 1 9 -5 26 -5 38 -1 12 5 25 6 28 2 10 -9 46 -10 46 -1 0 5 10 5
23 0 12 -5 31 -5 42 -1 11 4 28 3 38 -2 9 -5 17 -5 17 -1 0 4 14 8 30 8 17 0
30 -2 30 -5 0 -7 54 -5 66 3 6 3 16 2 24 -3 9 -5 19 -5 27 2 9 7 17 7 27 -1
10 -8 16 -9 21 -1 4 6 12 7 23 1 9 -5 26 -5 38 -1 12 5 25 6 28 2 10 -9 46
-10 46 -1 0 5 10 5 23 0 12 -5 31 -5 42 -1 11 4 28 3 38 -2 9 -5 17 -5 17 -1
0 4 14 8 30 8 17 0 30 -2 30 -5 0 -7 55 -4 68 4 6 3 13 2 17 -4 4 -7 13 -7 26
1 15 7 24 7 34 -1 9 -8 15 -8 20 0 4 6 12 7 23 1 9 -5 26 -5 38 -1 12 5 25 6
28 2 10 -9 46 -10 46 -1 0 5 10 5 23 0 12 -5 31 -5 42 -1 11 4 28 3 38 -2 9
-5 17 -5 17 -1 0 4 14 8 30 8 17 0 30 -2 30 -5 0 -7 55 -4 68 4 6 3 13 2 17
-4 4 -7 13 -7 26 1 15 7 24 7 34 -1 9 -8 15 -8 20 0 4 6 12 7 23 1 9 -5 26 -5
39 0 12 4 25 5 27 0 6 -9 49 -7 65 4 6 3 11 1 11 -5 0 -8 6 -8 21 0 15 8 24 8
34 0 9 -8 15 -8 20 0 4 6 12 7 23 1 11 -6 24 -6 35 0 9 6 17 6 17 2 0 -10 52
-9 68 1 6 3 13 2 17 -4 4 -7 13 -7 26 1 15 7 24 7 34 -1 9 -8 15 -8 20 0 4 6
12 7 23 1 9 -5 26 -5 38 -1 12 5 25 6 28 2 10 -9 46 -10 46 -1 0 5 10 5 23 0
12 -5 31 -5 42 -1 11 4 28 3 38 -2 9 -5 17 -5 17 -1 0 4 14 8 30 8 17 0 30 -2
30 -5 0 -7 54 -5 66 3 6 3 16 2 24 -3 9 -5 19 -5 27 2 9 7 17 7 27 -1 10 -8
16 -9 21 -1 4 6 12 7 23 1 9 -5 26 -5 38 -1 12 5 25 6 28 2 10 -9 46 -10 46
-1 0 5 10 5 23 0 12 -5 31 -5 42 -1 11 4 28 3 38 -2 9 -5 17 -5 17 -1 0 4 14
8 30 8 17 0 30 -2 30 -5 0 -7 55 -4 68 4 6 3 13 2 17 -4 4 -7 12 -7 26 0 13 8
19 7 19 0 0 -8 6 -8 20 0 14 8 20 8 20 0 0 -7 6 -7 21 0 15 8 24 8 34 0 9 -8
15 -8 20 0 4 6 12 7 23 1 11 -6 24 -6 35 0 9 6 17 6 17 2 0 -10 52 -9 68 1 6
3 13 2 17 -4 4 -7 13 -7 26 1 15 7 24 7 34 -1 9 -8 15 -8 20 0 4 6 12 7 23 1
9 -5 26 -5 38 -1 12 5 25 6 28 2 10 -9 46 -10 46 -1 0 5 10 5 23 0 12 -5 31
-5 42 -1 11 4 28 3 38 -2 9 -5 17 -5 17 -1 0 4 14 8 30 8 17 0 30 -2 30 -5 0
-9 217 7 234 18 6 3 20 8 31 9 11 2 27 6 35 10 19 8 27 10 44 12 8 0 21 7 28
14 7 6 19 13 27 15 29 6 122 73 177 129 67 66 83 86 110 134 10 19 24 37 29
41 6 4 6 8 1 8 -5 0 -1 9 9 20 10 11 15 20 12 20 -4 0 2 23 13 50 21 54 31 95
35 150 2 19 4 35 5 35 1 0 3 1074 1 1144 -1 28 -4 33 -21 28 -11 -3 -23 -1
-26 4 -4 6 -10 6 -18 0 -7 -6 -17 -6 -26 -1 -8 5 -21 5 -31 -1 -11 -5 -20 -5
-23 0 -3 5 -21 5 -41 1 -20 -4 -38 -4 -41 1 -3 5 -12 5 -22 0 -11 -6 -24 -6
-35 0 -11 7 -17 7 -17 0 0 -7 -8 -7 -25 -1 -15 6 -26 6 -30 0 -4 -7 -13 -6
-26 0 -10 6 -19 7 -19 3 0 -4 -11 -8 -25 -8 -14 0 -25 3 -25 6 0 3 -20 3 -45
-1 -25 -4 -48 -3 -51 2 -3 4 -13 4 -22 -1 -11 -6 -24 -6 -35 0 -11 7 -17 7
-17 0 0 -7 -8 -7 -25 -1 -15 6 -26 6 -30 0 -4 -7 -13 -6 -26 0 -10 6 -19 7
-19 3 0 -4 -11 -8 -25 -8 -14 0 -25 3 -25 7 0 4 -13 3 -29 -2 -17 -5 -33 -4
-39 2 -6 6 -12 6 -16 -1 -5 -8 -13 -8 -27 -1 -12 7 -19 7 -19 1 0 -7 -9 -7
-22 -2 -13 4 -35 5 -50 0 -16 -4 -30 -3 -34 2 -4 7 -10 6 -18 0 -7 -6 -17 -6
-26 -1 -8 5 -21 5 -31 -1 -10 -5 -20 -5 -23 0 -6 9 -48 7 -65 -4 -6 -3 -11 -1
-11 5 0 7 -6 8 -16 2 -36 -20 -51 -4 -48 51 1 29 3 63 3 77 l1 25 620 0 c341
0 620 2 621 5 5 31 0 1282 -5 1330 -4 36 -7 68 -7 72 -1 21 -54 149 -83 202
-33 58 -106 152 -133 169 -7 4 -19 15 -28 24 -70 69 -231 141 -360 159 -70 10
-2346 12 -2367 2 -9 -4 -19 -5 -22 0 -6 10 -207 9 -223 -1 -6 -4 -14 -4 -17 1
-6 9 -207 9 -223 -1 -6 -4 -14 -4 -17 1 -6 9 -207 9 -223 -1 -6 -4 -14 -4 -17
1 -6 9 -207 9 -223 -1 -6 -4 -14 -4 -17 1 -6 9 -207 9 -223 -1 -6 -4 -14 -4
-17 1 -4 7 -196 9 -221 2 -5 -1 -12 -1 -15 0 -7 3 -211 6 -214 3z"/>
<path d="M1876 7273 c-1 -1 -28 -4 -61 -7 -33 -4 -73 -9 -90 -12 -16 -3 -43
-7 -60 -9 -16 -2 -30 -4 -30 -5 0 -1 -9 -3 -20 -5 -11 -2 -29 -6 -40 -8 -11
-2 -27 -7 -35 -10 -8 -3 -38 -12 -65 -20 -59 -17 -196 -73 -242 -99 -41 -23
-93 -52 -124 -70 -12 -7 -34 -23 -48 -35 -14 -13 -29 -23 -32 -23 -3 0 -15 -8
-27 -17 -11 -10 -40 -34 -63 -53 -78 -64 -257 -253 -268 -283 -2 -7 -9 -17
-15 -24 -27 -30 -36 -43 -36 -48 0 -3 -6 -13 -12 -21 -7 -8 -17 -20 -23 -27
-5 -7 -20 -30 -32 -52 -11 -22 -30 -56 -42 -75 -11 -19 -26 -46 -31 -60 -6
-14 -23 -50 -38 -80 -14 -30 -27 -58 -28 -62 -1 -5 -3 -10 -4 -13 -1 -3 -3 -8
-5 -12 -1 -5 -5 -15 -8 -23 -15 -35 -48 -136 -49 -150 0 -8 -5 -21 -11 -27 -5
-7 -7 -13 -4 -13 3 0 1 -17 -5 -37 -5 -21 -11 -49 -13 -63 -3 -14 -8 -45 -13
-70 -5 -26 -9 -184 -10 -353 l-1 -307 37 -1 c122 -1 195 0 200 5 3 3 11 1 18
-5 9 -7 19 -7 32 0 11 6 22 7 26 4 3 -4 55 -5 116 -4 l109 2 3 -256 c2 -140 2
-260 0 -265 -2 -6 -37 -10 -77 -10 -41 0 -77 -4 -80 -10 -7 -12 -14 -56 -20
-130 -2 -30 -7 -68 -10 -85 -8 -53 -20 -147 -31 -255 -1 -19 -5 -53 -8 -75 -3
-22 -8 -62 -11 -90 -3 -27 -8 -64 -10 -81 -2 -17 -7 -57 -10 -90 -4 -32 -8
-70 -10 -84 -3 -14 -7 -54 -11 -90 -3 -36 -7 -72 -9 -80 -1 -8 -6 -44 -10 -80
-3 -36 -8 -76 -10 -90 -7 -45 -14 -104 -19 -150 -3 -25 -8 -63 -10 -85 -3 -22
-8 -64 -11 -94 -3 -30 -8 -58 -11 -63 -3 -4 0 -8 7 -8 9 0 9 -4 -1 -15 -6 -8
-9 -19 -6 -24 4 -5 2 -12 -3 -16 -6 -3 -8 -11 -6 -18 3 -7 -1 -51 -8 -99 l-13
-88 35 -1 c45 -1 1758 0 1789 0 15 1 21 5 16 13 -4 6 -9 30 -10 52 -1 23 -3
41 -4 41 -1 0 -3 14 -5 30 -1 17 -6 57 -10 90 -3 33 -8 74 -10 90 -9 88 -17
153 -21 175 -2 14 -7 50 -10 80 -3 30 -7 69 -9 85 -2 17 -6 55 -10 85 -12 115
-15 136 -20 170 -3 19 -7 58 -10 85 -2 28 -6 61 -9 75 -3 14 -7 54 -10 90 -6
65 -13 123 -22 190 -3 19 -7 53 -9 75 -3 22 -7 56 -9 75 -3 19 -8 64 -11 100
-3 36 -8 76 -10 90 -4 22 -8 53 -20 155 -1 11 -3 28 -4 38 -1 16 -10 18 -76
16 -42 -1 -77 0 -80 3 -4 3 -7 197 -4 258 0 8 0 65 0 125 0 61 0 118 0 127 0
15 13 17 110 17 61 -1 113 2 116 5 3 3 12 1 19 -5 9 -7 19 -7 32 0 11 6 22 7
26 4 7 -8 126 -6 134 1 10 11 7 2166 -3 2167 -20 2 -457 4 -459 2z"/>
<path d="M8039 7275 c-5 -1 -3 -2168 2 -2171 11 -6 320 -7 326 0 3 3 12 1 19
-5 8 -7 19 -7 31 -1 10 5 28 6 40 1 19 -7 21 -15 20 -63 -1 -31 1 -56 5 -56 4
0 4 -10 0 -22 -10 -28 -8 -120 2 -136 4 -7 3 -12 -1 -12 -10 0 -9 -102 1 -118
4 -7 4 -12 -1 -12 -4 0 -7 -25 -6 -55 l3 -55 -38 -1 c-20 0 -56 -1 -79 -1 -24
0 -43 -3 -44 -6 0 -4 -2 -14 -3 -22 -2 -8 -6 -42 -10 -75 -3 -33 -8 -71 -11
-85 -2 -14 -6 -52 -9 -85 -3 -33 -6 -60 -6 -60 -1 0 -3 -13 -5 -30 -3 -33 -12
-116 -21 -184 -4 -25 -8 -63 -9 -85 -2 -23 -6 -52 -9 -66 -2 -14 -7 -54 -11
-90 -6 -60 -11 -105 -20 -184 -11 -91 -16 -135 -20 -171 -3 -22 -7 -56 -9 -75
-3 -19 -7 -60 -10 -90 -4 -30 -8 -68 -10 -85 -2 -16 -7 -57 -11 -90 -3 -33 -8
-71 -10 -85 -2 -14 -6 -52 -10 -85 -3 -33 -8 -71 -10 -85 -2 -14 -6 -52 -10
-84 -3 -32 -8 -63 -11 -67 -6 -11 -74 -10 966 -11 l865 -1 3 33 c2 17 0 39 -3
48 -4 10 -8 35 -10 57 -1 22 -5 63 -9 90 -3 28 -8 73 -11 100 -3 28 -7 66 -10
85 -2 19 -7 60 -10 90 -3 30 -8 66 -10 80 -3 14 -7 50 -10 80 -10 101 -13 125
-18 155 -3 17 -8 57 -11 90 -4 33 -8 76 -11 95 -3 19 -7 55 -9 80 -8 70 -16
138 -26 220 -5 41 -12 100 -15 130 -3 30 -8 66 -10 80 -2 14 -7 56 -10 94 -3
38 -7 71 -9 75 -3 4 -8 40 -11 81 -4 41 -9 86 -10 100 -2 14 -4 29 -4 33 -1 5
-36 7 -78 6 l-78 -2 -3 267 -2 267 82 -2 c46 0 88 0 93 1 6 1 15 2 20 0 24 -4
135 -1 144 4 5 4 12 3 14 -1 3 -5 45 -7 94 -5 l88 3 -2 302 c-2 287 -5 353
-18 422 -14 70 -58 231 -66 240 -5 5 -9 15 -9 23 0 8 -6 28 -14 45 -8 18 -22
50 -31 72 -30 75 -40 95 -47 95 -5 0 -8 7 -8 15 0 16 -15 45 -79 149 -43 70
-78 121 -96 142 -5 6 -22 26 -37 45 -54 69 -163 185 -205 219 -10 8 -41 33
-68 56 -160 131 -427 267 -565 288 -9 1 -20 5 -26 9 -6 3 -26 8 -45 11 -19 2
-45 7 -59 10 -96 21 -177 27 -437 29 -128 2 -234 2 -234 2z"/>
<path d="M3045 3760 c-1 -3 -2 -45 -1 -93 0 -49 -2 -91 -7 -94 -4 -2 -4 -9 -1
-15 10 -15 10 -108 1 -108 -5 0 -5 -5 -1 -12 11 -17 11 -108 0 -108 -5 0 -4
-5 1 -12 10 -15 10 -208 0 -225 -4 -5 -4 -13 0 -16 3 -4 5 -44 4 -89 0 -46 -1
-92 -1 -103 0 -11 1 -66 2 -121 l0 -102 759 0 758 0 -1 46 c0 26 1 52 2 57 1
6 1 26 1 45 -1 19 -1 42 -1 50 0 48 0 69 -3 108 -1 23 1 42 4 42 6 0 2 70 -5
77 -3 3 -1 16 4 29 5 13 6 24 2 24 -6 0 -8 94 -2 110 2 6 1 55 -2 103 -2 20 0
37 5 37 4 0 5 4 2 10 -9 14 -13 80 -5 85 4 2 4 27 0 55 -4 27 -2 50 2 50 5 0
6 5 3 11 -9 13 -10 113 -2 125 3 5 0 16 -6 25 -10 13 -52 15 -312 15 -165 -1
-305 -4 -311 -8 -6 -4 -14 -4 -18 0 -9 8 -866 11 -871 2z"/>
<path d="M5819 3759 c-1 -8 -2 -258 -3 -556 l-1 -541 760 1 760 2 0 540 c1
297 -1 545 -2 551 -4 12 -180 13 -200 1 -6 -4 -14 -4 -17 1 -6 10 -1252 10
-1262 0 -4 -4 -13 -3 -21 3 -10 9 -13 8 -14 -2z"/>
<path d="M455 2509 c-18 -28 82 -253 169 -383 25 -38 46 -70 46 -72 0 -5 37
-47 120 -136 67 -73 202 -188 220 -188 5 0 10 -4 10 -9 0 -17 253 -157 327
-181 21 -7 43 -16 48 -20 24 -17 248 -81 357 -100 35 -7 72 -14 83 -16 60 -11
194 -22 343 -30 78 -3 102 -2 103 8 6 88 2 568 -5 568 -5 0 -4 6 1 13 10 14
10 533 0 544 -9 8 -1817 11 -1822 2z"/>
<path d="M2803 2502 c-7 -7 -14 -25 -15 -40 -2 -36 -1 -34 -23 -142 -6 -31 -8
-40 -39 -215 -14 -77 -28 -151 -30 -165 -3 -14 -7 -41 -10 -60 -2 -19 -9 -56
-15 -82 -6 -27 -11 -51 -10 -55 1 -5 0 -10 -1 -13 -3 -8 -7 -31 -14 -75 -6
-36 -10 -63 -21 -120 -2 -11 -4 -20 -6 -20 -1 0 -3 -11 -4 -25 -2 -14 -6 -43
-10 -65 -4 -22 -7 -48 -7 -57 1 -10 -2 -18 -6 -18 -4 0 -8 -12 -8 -27 -1 -16
-5 -44 -8 -63 -4 -19 -9 -46 -11 -60 -3 -14 -7 -36 -9 -50 -3 -13 -8 -42 -12
-65 -3 -22 -10 -60 -15 -85 -5 -25 -11 -59 -13 -76 -2 -17 -7 -41 -11 -53 -6
-18 -2 -21 27 -21 40 -1 2010 -1 2121 0 44 0 76 4 73 9 -4 5 -8 45 -11 90 -12
170 -14 208 -20 281 -3 41 -8 107 -10 145 -3 39 -8 102 -10 140 -2 39 -6 93
-9 120 -3 28 -8 95 -12 150 -3 55 -7 118 -9 140 -2 22 -6 81 -10 130 -3 50 -8
117 -11 150 -2 33 -7 103 -10 155 -4 52 -8 104 -9 115 -1 11 -3 25 -4 30 -1 7
-306 10 -893 10 -726 0 -894 -2 -905 -13z"/>
<path d="M5787 2512 c-11 -2 -17 -14 -18 -35 0 -18 -2 -48 -4 -67 -2 -19 -6
-75 -9 -125 -8 -112 -15 -212 -21 -290 -2 -33 -7 -98 -10 -145 -3 -47 -7 -105
-10 -130 -2 -25 -7 -90 -10 -145 -4 -55 -8 -120 -11 -145 -3 -24 -7 -87 -9
-140 -2 -52 -5 -95 -6 -95 -2 0 -5 -40 -13 -160 -3 -55 -8 -119 -11 -142 -4
-43 -4 -43 28 -43 247 -3 2180 0 2183 3 5 4 -5 70 -22 157 -5 23 -9 46 -19
105 -8 50 -15 92 -21 120 -9 49 -17 99 -17 118 -1 9 -4 17 -7 17 -3 0 -7 15
-8 33 -1 18 -5 43 -7 55 -3 12 -7 32 -10 45 -3 12 -7 41 -10 64 -3 23 -9 53
-14 66 -5 14 -7 27 -4 31 3 3 2 13 -2 23 -6 16 -15 72 -18 111 0 6 -4 12 -9
12 -5 0 -7 4 -3 9 3 6 -1 43 -9 83 -8 40 -20 102 -26 138 -14 82 -15 85 -45
258 -15 78 -28 156 -30 173 -2 17 -6 34 -9 37 -6 6 -1759 10 -1789 4z"/>
<path d="M8101 2510 c-4 -3 -7 -259 -6 -570 l0 -565 100 1 c345 5 672 79 945
215 105 53 229 127 256 153 6 6 31 27 55 46 60 47 166 154 214 215 22 28 42
52 45 55 45 44 190 327 205 399 2 9 6 24 10 34 4 9 3 17 -1 18 -36 4 -1817 3
-1823 -1z"/>
<path d="M2471 712 c-52 -3 -60 -8 -215 -126 -89 -67 -181 -138 -206 -157
l-45 -34 1 -150 c1 -83 2 -157 3 -165 1 -13 166 -15 1420 -15 781 0 1422 3
1425 6 8 8 12 309 4 309 -4 0 -5 6 -2 14 3 8 6 82 7 165 l2 151 -40 1 c-191 2
-2313 3 -2354 1z"/>
<path d="M5527 710 c-10 -4 -12 -80 -12 -325 l0 -320 1425 0 1425 0 3 167 c2
157 1 168 -17 177 -11 6 -25 17 -33 23 -7 7 -38 32 -68 54 -30 23 -66 51 -79
63 -13 11 -27 21 -30 21 -3 0 -18 10 -33 23 -14 12 -35 30 -46 39 -11 9 -23
14 -26 11 -3 -4 -6 -2 -6 4 0 6 -18 23 -39 37 l-39 28 -1207 1 c-663 1 -1211
0 -1218 -3z"/>
</g>
</svg>
