<?xml version="1.0" encoding="UTF-8"?><svg id="Layer_1" xmlns="http://www.w3.org/2000/svg" xmlns:xlink="http://www.w3.org/1999/xlink" viewBox="0 0 452.81 452.81"><defs><style>.cls-1{clip-path:url(#clippath);}.cls-2{fill:none;}.cls-2,.cls-3{stroke-width:0px;}.cls-4{clip-path:url(#clippath-1);}.cls-5{clip-path:url(#clippath-2);}</style><clipPath id="clippath"><rect class="cls-2" x="103.34" y="0" width="36" height="87.34"/></clipPath><clipPath id="clippath-1"><rect class="cls-2" x="0" y="34.01" width="452.71" height="418.71"/></clipPath><clipPath id="clippath-2"><rect class="cls-2" x="312.67" y="0" width="36" height="87.34"/></clipPath></defs><g class="cls-1"><path class="cls-3" d="M121.91,87.08c-10.45,0-17.41-6.97-17.41-17.42V17.42c0-10.45,6.96-17.42,17.41-17.42s17.42,6.96,17.42,17.42v52.24c0,10.45-6.96,17.42-17.42,17.42Z"/></g><g class="cls-4"><path class="cls-3" d="M400.56,34.83h-34.83v34.83c0,19.16-15.68,34.83-34.83,34.83s-34.83-15.68-34.83-34.83v-34.83h-139.33v34.83c0,19.16-15.67,34.83-34.83,34.83s-34.83-15.68-34.83-34.83v-34.83h-34.83C22.64,34.83,0,57.47,0,87.08v313.48c0,29.6,22.64,52.24,52.24,52.24h348.32c29.6,0,52.24-22.64,52.24-52.24V87.08c0-29.61-22.64-52.25-52.24-52.25ZM417.97,400.56c0,10.45-6.96,17.41-17.41,17.41H52.24c-10.45,0-17.42-6.96-17.42-17.41v-243.82h383.15v243.82Z"/></g><g class="cls-5"><path class="cls-3" d="M330.9,87.08c-10.45,0-17.42-6.97-17.42-17.42V17.42c0-10.45,6.97-17.42,17.42-17.42s17.42,6.96,17.42,17.42v52.24c0,10.45-6.96,17.42-17.42,17.42Z"/></g></svg>