<svg enable-background="new 0 0 200 146" viewBox="0 0 200 146" xmlns="http://www.w3.org/2000/svg"><g enable-background="new" fill="#505759"><path d="m20.3 6.4h8.2v2.1h-6v3.3h5.6v2.1h-5.6v5.3h-2.3v-12.8z"/><path d="m30 14.8c0-.7.1-1.3.4-1.9.2-.6.6-1 1-1.4s.9-.7 1.5-.9 1.2-.3 1.8-.3 1.3.1 1.8.3 1.1.5 1.5.9.8.9 1 1.4c.2.6.4 1.2.4 1.9s-.1 1.3-.4 1.9-.6 1-1 1.4-.9.7-1.5.9-1.2.3-1.8.3-1.3-.1-1.8-.3c-.6-.2-1.1-.5-1.5-.9s-.8-.9-1-1.4-.4-1.2-.4-1.9zm2.1 0c0 .3.1.7.2 1s.3.6.5.8.5.4.8.6c.3.1.7.2 1.1.2s.8-.1 1.1-.2.6-.3.8-.6c.2-.2.4-.5.5-.8s.2-.6.2-1-.1-.7-.2-1-.3-.6-.5-.8-.5-.4-.8-.6c-.3-.1-.7-.2-1.1-.2s-.8.1-1.1.2-.6.3-.8.6c-.2.2-.4.5-.5.8s-.2.7-.2 1z"/><path d="m41.4 10.5h2.2v1.4c.2-.5.6-.9 1-1.2s1-.4 1.5-.4h.4c.1 0 .3.1.4.1v2.1c-.2 0-.4-.1-.5-.1-.2 0-.3 0-.5 0-.5 0-.9.1-1.2.3s-.5.4-.7.6-.3.5-.3.7c-.1.2-.1.4-.1.5v4.6h-2.2z"/><path d="m48.6 10.5h2.1v1.3c.2-.4.5-.8.9-1.1s1-.5 1.7-.5c1.4 0 2.3.5 2.7 1.6.3-.6.7-1 1.2-1.2.5-.3 1-.4 1.7-.4.6 0 1.1.1 1.5.3s.7.5 1 .8c.2.3.4.7.5 1.2s.1 1 .1 1.5v5.1h-2.2v-4.9c0-.3 0-.5-.1-.8s-.1-.5-.3-.6c-.1-.2-.3-.3-.5-.4s-.5-.2-.8-.2-.6.1-.9.2c-.2.1-.4.3-.6.5s-.3.5-.3.7c-.1.3-.1.5-.1.8v4.7h-2.2v-5.1c0-.5-.1-1-.3-1.3s-.6-.5-1.1-.5c-.4 0-.7.1-.9.2s-.5.3-.6.5-.3.4-.4.7-.1.5-.1.8v4.7h-2.2v-8.6z"/><path d="m74 6.4h2l5.5 12.7h-2.6l-1.2-2.9h-5.5l-1.2 2.9h-2.5zm2.9 7.9-2-5.2-2 5.2z"/></g><g enable-background="new" fill="#505759"><path d="m120.9 6.4h8.2v2.1h-6v3.3h5.6v2.1h-5.6v5.3h-2.3v-12.8z"/><path d="m130.6 14.8c0-.7.1-1.3.4-1.9.2-.6.6-1 1-1.4s.9-.7 1.5-.9 1.2-.3 1.8-.3 1.3.1 1.8.3 1.1.5 1.5.9.8.9 1 1.4c.2.6.4 1.2.4 1.9s-.1 1.3-.4 1.9-.6 1-1 1.4-.9.7-1.5.9-1.2.3-1.8.3-1.3-.1-1.8-.3c-.6-.2-1.1-.5-1.5-.9s-.8-.9-1-1.4-.4-1.2-.4-1.9zm2.2 0c0 .3.1.7.2 1s.3.6.5.8.5.4.8.6c.3.1.7.2 1.1.2s.8-.1 1.1-.2.6-.3.8-.6c.2-.2.4-.5.5-.8s.2-.6.2-1-.1-.7-.2-1-.3-.6-.5-.8-.5-.4-.8-.6c-.3-.1-.7-.2-1.1-.2s-.8.1-1.1.2-.6.3-.8.6c-.2.2-.4.5-.5.8s-.2.7-.2 1z"/><path d="m142.1 10.5h2.2v1.4c.2-.5.6-.9 1-1.2s1-.4 1.5-.4h.4c.1 0 .3.1.4.1v2.1c-.2 0-.4-.1-.5-.1-.2 0-.3 0-.5 0-.5 0-.9.1-1.2.3s-.5.4-.7.6-.3.5-.3.7c-.1.2-.1.4-.1.5v4.6h-2.2z"/><path d="m149.3 10.5h2.1v1.3c.2-.4.5-.8.9-1.1s1-.5 1.7-.5c1.4 0 2.3.5 2.7 1.6.3-.6.7-1 1.2-1.2.5-.3 1-.4 1.7-.4.6 0 1.1.1 1.5.3s.7.5 1 .8c.2.3.4.7.5 1.2.1.4.2.9.2 1.4v5.1h-2.2v-4.9c0-.3 0-.5-.1-.8s-.1-.5-.3-.6c-.1-.2-.3-.3-.5-.4s-.5-.2-.8-.2-.6.1-.9.2c-.2.1-.4.3-.6.5s-.3.5-.3.7c-.1.3-.1.5-.1.8v4.7h-2.2v-5c0-.5-.1-1-.3-1.3s-.6-.5-1.1-.5c-.4 0-.7.1-.9.2s-.5.3-.6.5-.3.4-.4.7-.1.5-.1.8v4.7h-2.2v-8.6z"/><path d="m170.6 6.4h5c.5 0 1 .1 1.4.2.5.1.9.3 1.3.6s.7.6.9 1 .3.9.3 1.5c0 .7-.2 1.3-.6 1.8s-.9.8-1.6 1c.4 0 .8.2 1.1.3s.6.4.9.7c.2.3.4.6.6.9.1.4.2.7.2 1.1 0 .7-.1 1.3-.4 1.7-.3.5-.6.8-1.1 1.1s-1 .5-1.5.6-1.2.2-1.8.2h-4.6v-12.7zm2.2 5.2h2.1c.8 0 1.3-.1 1.7-.4s.6-.7.6-1.2c0-.6-.2-1-.6-1.2-.4-.3-1-.4-1.9-.4h-1.9zm0 5.6h2.1c.3 0 .6 0 .9-.1s.6-.1.9-.3.5-.3.7-.6c.2-.2.3-.6.3-1 0-.7-.2-1.1-.7-1.4s-1.1-.4-2-.4h-2.2z"/></g><path d="m.4 28.9h99.2v22.8h-99.2z" fill="#2ea2cc"/><path d="m99.2 29.2v22h-98.4v-22zm.8-.7h-100v23.5h100z" fill="#0073aa"/><path d="m.4 52.4h99.2v22.8h-99.2z" fill="#2ea2cc"/><path d="m99.2 52.7v22h-98.4v-22zm.8-.7h-100v23.5h100z" fill="#0073aa"/><path d="m.4 75.9h99.2v22.8h-99.2z" fill="#2ea2cc"/><path d="m99.2 76.2v22h-98.4v-22zm.8-.7h-100v23.5h100z" fill="#0073aa"/><path d="m.4 99.4h99.2v22.8h-99.2z" fill="#2ea2cc"/><path d="m99.2 99.8v22h-98.4v-22zm.8-.8h-100v23.5h100z" fill="#0073aa"/><path d="m.4 122.9h99.2v22.8h-99.2z" fill="#2ea2cc"/><path d="m99.2 123.2v22h-98.4v-22zm.8-.7h-100v23.5h100z" fill="#0073aa"/><path d="m199 29.5v21.5h-98v-21.5zm1-1h-100v23.5h100z" fill="#0073aa"/><path d="m100.4 52.4h99.2v22.8h-99.2z" fill="#2ea2cc"/><path d="m199.2 52.7v22h-98.5v-22zm.8-.7h-100v23.5h100z" fill="#0073aa"/><path d="m199.2 76.2v22h-98.5v-22zm.8-.7h-100v23.5h100z" fill="#0073aa"/><path d="m100.4 99.4h99.2v22.8h-99.2z" fill="#2ea2cc"/><path d="m199.2 99.8v22h-98.5v-22zm.8-.8h-100v23.5h100z" fill="#0073aa"/><path d="m100.4 122.9h99.2v22.8h-99.2z" fill="#2ea2cc"/><path d="m199.2 123.2v22h-98.5v-22zm.8-.7h-100v23.5h100z" fill="#0073aa"/><g fill="#002533" font-family="'Avenir-Black'" font-size="20.1727"><text transform="translate(41.7939 46.8359)">1</text><text transform="translate(41.7939 70.586)">2</text><text transform="translate(41.7939 94.3358)">3</text><text transform="translate(41.7939 118.0859)">4</text><text transform="translate(41.7939 141.8359)">5</text></g><path d="m0 28.5h200" fill="none" stroke="#0073aa" stroke-miterlimit="10" stroke-width="1.5"/><path d="m0 145h200" fill="none" stroke="#0073aa" stroke-miterlimit="10" stroke-width="1.5"/></svg>