<svg xmlns="http://www.w3.org/2000/svg" viewBox="0 0 75.33 74.67"><title>Demo-7</title><g id="Workshop"><path d="M73.4,37a36,36,0,1,1-36-36,36,36,0,0,1,36,36" style="fill:#a3cf66"/><path d="M70,35.78A32.66,32.66,0,1,1,36.18,4.37,32.66,32.66,0,0,1,70,35.78" style="fill:#3f5426"/><circle cx="37.4" cy="37" r="32.66" style="fill:none;stroke:#fff;stroke-miterlimit:10;stroke-width:2.29714291436332px"/><path d="M16.77,40.12a6,6,0,0,0,.51,2.08,58.8,58.8,0,0,0,5,8.22l.2.25a.54.54,0,0,0,.66.15.51.51,0,0,0,.2-.66l-4.47-7.26a1.9,1.9,0,0,1,.66-2.49,1.78,1.78,0,0,1,2.49.56l4.62,5.94a5.76,5.76,0,0,0,1.27,1.22A11.42,11.42,0,0,1,33,55.7a6.75,6.75,0,0,1,.05.86h0A8,8,0,0,1,33,58l-.3,5a.67.67,0,0,1-.66.66l-7.81-.05a.67.67,0,0,1-.66-.66l-.15-4.11L16,49.91a7.46,7.46,0,0,1-2.08-4.06l-.05-.46L12.51,32.86a1.79,1.79,0,0,1,.66-1.62,1.5,1.5,0,0,1,2.18.15,7.6,7.6,0,0,1,.81,2.74,53.06,53.06,0,0,1,.61,5.63A.42.42,0,0,0,16.77,40.12Zm1.32-1.27v.41a1.82,1.82,0,0,1,.51-.36,1.78,1.78,0,0,1,.71-.3,0,0,0,0,1,.05-.05,43.79,43.79,0,0,0-1-5,1.72,1.72,0,0,0-1.17-1.32,12.37,12.37,0,0,1,.3,1.32A50,50,0,0,1,18.09,38.85Zm2.54-.46a4.32,4.32,0,0,1,1.12.2,24.4,24.4,0,0,0-.91-3.3A1.9,1.9,0,0,0,19.67,34c.2,1,.76,2.64.86,3.55l.1.61Zm32.22,2.54-4.62,5.94A5.76,5.76,0,0,1,47,48.09a11.42,11.42,0,0,0-5.07,7.56,6.75,6.75,0,0,0-.05.86h0a8,8,0,0,0,.1,1.47l.25,5a.67.67,0,0,0,.66.66l7.81-.05a.67.67,0,0,0,.66-.66l.15-4.11,7.41-8.93A7.46,7.46,0,0,0,61,45.8l.05-.46,1.27-12.53a1.79,1.79,0,0,0-.66-1.62,1.5,1.5,0,0,0-2.18.15,7.6,7.6,0,0,0-.81,2.74A53.06,53.06,0,0,0,58,39.71v.36a6,6,0,0,1-.51,2.08,58.8,58.8,0,0,1-5,8.22l-.2.25a.54.54,0,0,1-.66.15.51.51,0,0,1-.2-.66l4.41-7.26a1.9,1.9,0,0,0-.66-2.49A1.68,1.68,0,0,0,52.85,40.93Zm3.86-1.62V38.9a49,49,0,0,1,.61-5.33,7,7,0,0,1,.3-1.32,1.64,1.64,0,0,0-1.17,1.32,41.79,41.79,0,0,0-1,5,0,0,0,0,0,.05.05l.71.3A2.79,2.79,0,0,1,56.71,39.31Zm-2.39-1.73c.1-.91.66-2.64.86-3.55A1.72,1.72,0,0,0,54,35.35c-.2.76-.76,2.44-.91,3.3a2.73,2.73,0,0,1,1.12-.2v-.2Z" style="fill:#a3cf66"/><path d="M36.67,11.52a.18.18,0,0,0-.19.19V13a5.37,5.37,0,0,0-2.68,1.54l-1.08-.63a.19.19,0,0,0-.26.07l-1,1.8a.19.19,0,0,0,.07.26l1.08.63a5.31,5.31,0,0,0,0,3.09l-1.08.64a.19.19,0,0,0-.07.26l1,1.8a.19.19,0,0,0,.26.07l1.08-.64a5.39,5.39,0,0,0,2.68,1.55v1.25a.19.19,0,0,0,.19.2h2.09a.2.2,0,0,0,.2-.2V23.43a5.36,5.36,0,0,0,2.67-1.55l1.1.64a.19.19,0,0,0,.26-.07l1-1.8a.19.19,0,0,0-.07-.26l-1.08-.64a5.55,5.55,0,0,0,0-3.09L43.95,16a.19.19,0,0,0,.07-.26L43,14a.19.19,0,0,0-.26-.07l-1.1.63A5.34,5.34,0,0,0,39,13V11.7a.19.19,0,0,0-.2-.19Zm1,3a3.63,3.63,0,1,1-3.63,3.63A3.63,3.63,0,0,1,37.71,14.56ZM29,22.63a9.17,9.17,0,0,0-3,1.22,2,2,0,0,1-2.8,2.81,9.12,9.12,0,0,0-1.23,3,2,2,0,0,1,0,4,9.12,9.12,0,0,0,1.23,3,2,2,0,0,1,1.2-.4,2,2,0,0,1,1.6,3.2,9.19,9.19,0,0,0,3,1.23,2,2,0,0,1,4,0,9.13,9.13,0,0,0,3-1.23,2,2,0,0,1,1.6-3.2,2,2,0,0,1,1.2.4,9.13,9.13,0,0,0,1.23-3,2,2,0,0,1,0-4,9.13,9.13,0,0,0-1.23-3,2,2,0,0,1-2.8-2.81,9.11,9.11,0,0,0-3-1.22,2,2,0,0,1-4,0Zm2,2.91a6,6,0,0,1,2.47.53l-1.78,3.1a2.47,2.47,0,0,0-.69-.09,2.54,2.54,0,0,0-.7.09l-1.78-3.1A6.05,6.05,0,0,1,31,25.55Zm-3.55,1.15,1.78,3.1a2.55,2.55,0,0,0-.7,1.2H25A6.06,6.06,0,0,1,27.44,26.69Zm7.09,0A6,6,0,0,1,37,31H33.43a2.55,2.55,0,0,0-.7-1.2Zm10.14,1.06a.19.19,0,0,0-.19.2v1.25a5.39,5.39,0,0,0-2.68,1.55l-1.08-.64a.2.2,0,0,0-.27.07l-1,1.8a.19.19,0,0,0,.06.26l1.1.64a5.31,5.31,0,0,0,0,3.09l-1.1.63a.19.19,0,0,0-.06.26l1,1.8a.2.2,0,0,0,.27.07l1.08-.63a5.38,5.38,0,0,0,2.68,1.54v1.26a.18.18,0,0,0,.19.19h2.09a.18.18,0,0,0,.19-.19V39.67a5.37,5.37,0,0,0,2.68-1.54l1.08.63a.2.2,0,0,0,.27-.07l1-1.8a.19.19,0,0,0-.07-.26L50.85,36a5.31,5.31,0,0,0,0-3.09l1.1-.64A.19.19,0,0,0,52,32l-1-1.8a.2.2,0,0,0-.27-.07l-1.08.64a5.39,5.39,0,0,0-2.68-1.55V28a.19.19,0,0,0-.19-.2ZM31,30.3a1.31,1.31,0,0,1,0,2.62,1.31,1.31,0,1,1,0-2.62Zm14.73.51a3.63,3.63,0,1,1-3.63,3.63A3.63,3.63,0,0,1,45.71,30.81ZM25,32.22h3.57a2.55,2.55,0,0,0,.7,1.2l-1.78,3.1A6.06,6.06,0,0,1,25,32.22Zm8.48,0H37a6,6,0,0,1-2.47,4.3l-1.79-3.1A2.55,2.55,0,0,0,33.43,32.22ZM30.28,34a2.55,2.55,0,0,0,.7.1,2.48,2.48,0,0,0,.69-.1l1.78,3.1a6,6,0,0,1-5,0Z" style="fill:#a3cf66"/><path d="M37,31.39a6.07,6.07,0,1,1-6.29-5.84A6.07,6.07,0,0,1,37,31.39" style="fill:#3f5426"/></g></svg>