<svg xmlns="http://www.w3.org/2000/svg" viewBox="0 0 72 72"><title>Performance</title><g id="Workshop"><path d="M72,36A36,36,0,1,1,36,0,36,36,0,0,1,72,36" style="fill:#fbb043"/><path d="M68.63,34.78A32.66,32.66,0,1,1,34.78,3.37,32.66,32.66,0,0,1,68.63,34.78" style="fill:#ef5523"/><circle cx="36" cy="36" r="32.66" style="fill:none;stroke:#fff;stroke-miterlimit:10;stroke-width:2.29714291436332px"/><path d="M64.46,34.79l-.57-.38a2.53,2.53,0,0,0-3.52.69l-1.51,2.26,2.64-11.62A2.27,2.27,0,0,0,59.75,23l-.44-.13a2.27,2.27,0,0,0-2.76,1.76l-1.7,6.22,2.2-9.55a2.27,2.27,0,0,0-1.76-2.76l-.44-.13a2.27,2.27,0,0,0-2.76,1.76L49.7,28.83,51,22.61a2.27,2.27,0,0,0-1.76-2.76l-.63-.13a2.27,2.27,0,0,0-2.76,1.76L43.36,32.09,44.55,25a2.27,2.27,0,0,0-1.76-2.76L42,22a2.27,2.27,0,0,0-2.76,1.76L38,29.58l7.16,17.83L36.7,50.81c-.19,0-.38.06-.57.06a5.06,5.06,0,0,1-2.7-1,4.94,4.94,0,0,1-.5,1.88l-.69,3.14,7.85,1.76c2,.06,3.64-2.89,3.64-2.89s-.06,3.71,1.7,4.08,8.41,1.95,8.41,1.95l1.51-6.59,9.86-14.63A2.81,2.81,0,0,0,64.46,34.79Z" style="fill:#ed5523"/><path d="M8.95,32.22l.5-.5a2.56,2.56,0,0,1,3.58.13l1.82,1.95L10.39,22.74a2.29,2.29,0,0,1,1.32-3l.44-.19a2.29,2.29,0,0,1,3,1.32l2.64,5.84L14.1,17.59a2.29,2.29,0,0,1,1.32-3l.44-.19a2.29,2.29,0,0,1,3,1.32l3.71,8.23L20.38,18a2.29,2.29,0,0,1,1.32-3l.63-.25a2.29,2.29,0,0,1,3,1.32l4.08,10.11L27.1,19.35a2.29,2.29,0,0,1,1.32-3l.75-.31a2.29,2.29,0,0,1,3,1.32L36.45,28.2h0L44,46.85l-7.47,3c-2,.38-4.08-2.26-4.08-2.26s.63,3.64-1,4.33l-8,3.2-2.51-6.28L8.89,36A2.73,2.73,0,0,1,8.95,32.22Z" style="fill:#ed5523"/><path d="M55.55,32.48a3.86,3.86,0,0,1-.54,0,4,4,0,0,1-2.71-1,4,4,0,0,1-5.42,0,4,4,0,0,1-5.42,0,4,4,0,0,1-5.42,0,4,4,0,0,1-5.42,0,4,4,0,0,1-5.42,0,4,4,0,0,1-5.42,0,4,4,0,0,1-2.71,1,3.87,3.87,0,0,1-.56,0c-.05,3.21.34,12-5.95,20,13.18-.53,16.61-6,19.18-14.68,3.3,0,5.94-1.35,6.28-3.39.29,2,2.75,3.39,6.28,3.39,2,8.18,6,14.15,19.18,14.68C55.21,44.44,55.61,35.69,55.55,32.48Z" style="fill:#fbb043"/><path d="M57.74,28.52A29.49,29.49,0,0,1,36.06,13.3,29.49,29.49,0,0,1,14.39,28.52v.95a2.71,2.71,0,0,0,2.11,2.64,2.66,2.66,0,0,0,.6.07,2.71,2.71,0,0,0,2.7-2.62h0a2.71,2.71,0,0,0,5.41,0h0a2.71,2.71,0,0,0,5.41,0h0a2.71,2.71,0,0,0,5.41,0h0a2.71,2.71,0,0,0,5.41,0h0a2.71,2.71,0,0,0,5.41,0h0a2.71,2.71,0,0,0,5.41,0h0A2.71,2.71,0,0,0,55,32.18l.34,0a2.71,2.71,0,0,0,2.37-2.69v-1Z" style="fill:#fbb043"/><path d="M36,12.86c1.24-1.82,6.94,0,8.69-2.16-3.13,0-5.42-3.2-8.69-2.16Z" style="fill:#fbb043"/></g></svg>