<svg xmlns="http://www.w3.org/2000/svg" viewBox="0 0 72 72"><title>Workshop</title><g id="Workshop"><path d="M72,36A36,36,0,1,1,36,0,36,36,0,0,1,72,36" style="fill:#e22028"/><path d="M68.63,34.78A32.66,32.66,0,1,1,34.78,3.37,32.66,32.66,0,0,1,68.63,34.78" style="fill:#b01f24"/><circle cx="36" cy="36" r="32.66" style="fill:none;stroke:#fff;stroke-miterlimit:10;stroke-width:2.29714291436332px"/><path d="M50.3,29.52,47.1,26a1.64,1.64,0,0,1,.14-2.31l5.93-5.37A9.55,9.55,0,0,0,40.55,29.77l-3.49,3.16L33.54,29a1,1,0,0,0-1.23-.15l-.37.21-2.34-2.71h0a6,6,0,0,1-1.11-4.92h0a1.74,1.74,0,0,1,2.69-1l.23.27a.91.91,0,0,0,1.29.1l3.11-2.67a.91.91,0,0,0,.1-1.29L31.34,11.5a.91.91,0,0,0-1.29-.1l-3.11,2.67a.91.91,0,0,0-.1,1.29l.23.27.07.15,0,.09v0l0,.09V16l0,.08v.19s0,.05,0,.08,0,0,0,.06,0,.05,0,.08v.14l0,.13,0,.06,0,.08,0,.06,0,.07,0,.06,0,.07,0,.06,0,.07,0,.05-.05.07,0,0-.07.07,0,0-.11.1a1.74,1.74,0,0,1-1.2.42l-.21-.07,0,.05s-2.16-1-3.48-.36a19.37,19.37,0,0,0-3.08,2.17c-6.66,5.73-8.28,14.77-3.61,20.19l.14.16a.54.54,0,0,0,.9-.59h0a7.17,7.17,0,0,1,10.69-9l1.36,1.58L28,32.6a1,1,0,0,0,0,1.24l3.49,4.21-3.34,3A9.55,9.55,0,0,0,15.42,52.51l5.93-5.37a1.64,1.64,0,0,1,2.31.09l3.2,3.53a1.64,1.64,0,0,1-.14,2.31l-5.93,5.37A9.55,9.55,0,0,0,33.4,47l3.08-2.79,1.41,1.7,7.38,8.91,2.46,3a1.26,1.26,0,0,0,1.79.15L54.11,54a1.26,1.26,0,0,0,.12-1.79l-2.57-2.87L44,40.66l-1.6-1.8,3.53-3.2A9.55,9.55,0,0,0,58.54,24.23L52.61,29.6A1.64,1.64,0,0,1,50.3,29.52Z" style="fill:#e22028"/></g></svg>